<?xml version="1.0" encoding="UTF-8" ?>
<!DOCTYPE svg PUBLIC "-//W3C//DTD SVG 1.1//EN" "http://www.w3.org/Graphics/SVG/1.1/DTD/svg11.dtd">
<svg width="430pt" height="430pt" viewBox="0 0 430 430" version="1.1" xmlns="http://www.w3.org/2000/svg">
<path fill="#fefefe" d=" M 0.00 0.00 L 430.00 0.00 L 430.00 430.00 L 0.00 430.00 L 0.00 0.00 Z" />
<path fill="#000000" d=" M 30.01 30.01 C 53.34 29.99 76.67 30.01 100.00 30.00 C 99.99 53.33 100.01 76.66 99.98 99.99 C 76.66 100.00 53.33 100.00 30.01 99.99 C 30.01 76.67 29.99 53.34 30.01 30.01 Z" />
<path fill="#000000" d=" M 110.01 30.01 C 130.00 30.00 150.00 29.99 169.99 30.01 C 169.99 33.34 170.00 36.67 170.00 40.00 C 173.33 40.00 176.66 40.00 179.99 40.00 C 180.00 43.33 180.00 46.67 180.00 50.00 C 176.66 50.01 173.33 50.00 170.01 49.99 C 170.00 46.66 170.00 43.33 170.00 40.00 C 163.33 40.00 156.67 40.00 150.00 40.00 C 150.00 43.33 150.00 46.66 149.99 49.99 C 146.66 50.00 143.33 50.01 140.00 50.00 C 140.00 46.67 140.00 43.33 140.00 40.00 C 136.67 40.00 133.33 40.00 130.00 40.00 C 130.00 43.33 130.00 46.66 129.99 49.99 C 123.33 50.01 116.67 50.01 110.01 49.99 C 109.99 43.33 109.99 36.67 110.01 30.01 Z" />
<path fill="#000000" d=" M 190.01 30.01 C 193.34 30.00 196.67 30.00 200.00 30.00 C 200.00 33.34 200.00 36.67 199.99 40.00 C 196.66 40.00 193.33 40.00 190.00 40.00 C 189.99 36.67 190.00 33.34 190.01 30.01 Z" />
<path fill="#000000" d=" M 220.01 30.00 C 230.00 30.01 239.99 29.99 249.99 30.01 C 249.99 33.34 250.00 36.67 250.00 40.00 C 260.00 40.01 270.00 40.00 280.00 40.00 C 280.00 43.33 280.00 46.66 280.00 50.00 C 266.66 50.00 253.33 50.00 240.00 49.99 C 240.00 46.66 240.00 43.33 240.00 40.00 C 233.33 40.00 226.67 40.00 220.01 40.00 C 220.00 36.66 220.00 33.33 220.01 30.00 Z" />
<path fill="#000000" d=" M 290.01 30.01 C 296.67 29.99 303.33 29.99 309.99 30.01 C 310.01 36.67 309.98 43.33 310.01 50.00 C 313.34 50.00 316.66 50.00 319.99 50.00 C 320.00 66.67 320.00 83.33 320.00 99.99 C 316.66 100.00 313.33 100.00 310.01 99.99 C 310.00 96.66 309.99 93.34 309.99 90.01 C 306.66 89.99 303.33 89.99 300.00 90.00 C 300.00 93.33 299.99 96.66 299.99 99.99 C 296.66 100.01 293.33 100.01 290.00 99.99 C 290.00 96.66 290.02 93.34 290.01 90.01 C 286.67 89.99 283.34 89.99 280.00 90.00 C 280.00 96.67 280.00 103.33 280.00 110.00 C 290.00 110.02 300.00 109.98 309.99 110.01 C 310.00 113.34 310.00 116.67 310.00 120.00 C 316.66 120.00 323.33 120.00 329.99 120.00 C 330.00 123.33 330.00 126.66 329.99 129.99 C 326.66 130.00 323.33 129.99 320.00 130.00 C 320.00 133.33 320.00 136.66 320.00 139.99 C 316.67 140.00 313.34 140.00 310.01 139.99 C 309.99 133.33 310.02 126.66 310.00 120.00 C 303.33 120.00 296.67 120.00 290.00 120.00 C 289.99 123.33 289.99 126.66 289.99 129.99 C 286.66 130.00 283.33 130.00 280.00 129.99 C 280.00 123.33 280.00 116.67 280.00 110.00 C 270.00 109.99 260.00 109.99 250.01 110.00 C 249.99 113.34 249.99 116.67 250.00 120.00 C 253.33 120.00 256.66 120.00 259.99 120.00 C 260.00 123.33 260.00 126.67 259.99 130.00 C 253.33 130.01 246.66 129.98 240.00 130.00 C 239.99 133.33 240.00 136.66 240.00 139.99 C 236.67 140.00 233.33 140.00 230.01 139.99 C 230.00 136.66 229.99 133.33 229.99 130.01 C 226.66 129.99 223.33 129.98 220.00 130.00 C 219.98 136.66 220.02 143.33 219.99 149.99 C 216.66 149.99 213.33 150.00 210.00 150.01 C 209.99 153.34 210.00 156.67 210.00 160.00 C 206.66 160.00 203.33 160.00 200.00 160.00 C 200.00 156.66 200.00 153.33 200.00 150.00 C 190.00 149.98 180.00 150.01 170.00 149.99 C 169.99 146.66 170.00 143.33 170.01 140.01 C 173.33 140.01 176.66 140.01 179.99 139.99 C 180.02 133.33 179.99 126.66 180.00 120.00 C 183.33 120.00 186.66 120.00 190.00 120.00 C 190.00 116.66 190.00 113.33 189.99 110.00 C 186.66 109.99 183.34 109.99 180.01 110.00 C 180.00 113.33 179.99 116.66 180.00 120.00 C 176.67 120.00 173.33 120.00 170.00 120.00 C 170.00 116.67 170.00 113.34 170.00 110.01 C 166.66 109.99 163.33 109.99 160.00 110.01 C 160.00 113.34 160.00 116.67 160.00 120.00 C 156.67 120.00 153.34 120.00 150.01 120.00 C 149.99 116.67 150.00 113.34 150.01 110.01 C 153.34 110.00 156.67 110.00 160.00 110.00 C 160.01 106.66 160.00 103.33 160.00 100.00 C 163.33 100.00 166.66 100.00 170.00 100.01 C 170.00 103.34 169.98 106.67 170.00 109.99 C 173.33 110.01 176.66 110.01 180.00 110.00 C 180.01 106.67 180.00 103.34 180.01 100.01 C 183.34 100.00 186.66 100.01 190.00 100.00 C 190.01 96.67 190.02 93.34 190.00 90.01 C 186.67 89.99 183.33 89.98 180.00 90.00 C 179.99 93.33 179.99 96.66 180.00 99.99 C 176.67 100.00 173.34 100.01 170.01 100.00 C 170.00 96.67 169.99 93.34 170.01 90.01 C 173.34 90.01 176.66 90.00 179.99 89.99 C 180.00 86.66 180.00 83.33 180.01 80.00 C 183.34 80.00 186.67 80.00 190.00 80.00 C 190.00 76.67 190.00 73.34 190.01 70.01 C 196.67 69.99 203.33 69.99 209.99 70.01 C 209.99 73.34 210.00 76.67 210.00 80.00 C 223.33 80.00 236.66 80.00 250.00 80.00 C 250.01 73.34 249.99 66.67 250.01 60.01 C 253.33 59.99 256.66 59.99 259.99 60.01 C 259.99 63.34 260.00 66.67 260.00 70.00 C 266.67 70.01 273.33 70.01 280.00 70.00 C 280.01 66.67 280.00 63.34 280.00 60.01 C 286.66 59.99 293.33 60.02 299.99 59.99 C 300.01 53.33 300.01 46.66 300.00 40.00 C 296.66 40.00 293.33 40.00 290.00 40.00 C 289.99 36.67 290.00 33.34 290.01 30.01 Z" />
<path fill="#000000" d=" M 330.01 30.01 C 353.34 29.99 376.67 30.01 400.00 30.01 C 400.00 53.34 400.00 76.66 400.00 99.99 C 376.67 100.00 353.34 100.00 330.01 99.99 C 330.00 76.66 329.99 53.34 330.01 30.01 Z" />
<path fill="#fefefe" d=" M 40.00 40.00 C 56.67 40.00 73.33 40.00 90.00 40.00 C 90.00 56.67 90.01 73.33 89.99 89.99 C 73.33 90.01 56.66 90.01 40.00 90.00 C 40.00 73.33 40.00 56.67 40.00 40.00 Z" />
<path fill="#000000" d=" M 199.99 40.00 C 203.33 40.00 206.66 40.00 209.99 40.00 C 210.00 43.34 210.00 46.67 209.99 50.00 C 206.85 50.29 203.45 49.29 200.49 50.49 C 199.29 53.46 200.30 56.86 200.01 59.99 C 196.67 60.00 193.34 60.00 190.01 59.99 C 189.99 56.66 189.98 53.33 190.01 50.00 C 193.27 49.87 196.58 50.35 199.80 49.80 C 200.35 46.58 199.86 43.26 199.99 40.00 Z" />
<path fill="#fefefe" d=" M 340.00 40.00 C 356.67 40.00 373.33 40.00 390.00 40.00 C 390.01 56.67 390.01 73.33 389.99 90.00 C 373.33 90.01 356.67 90.00 340.00 90.00 C 339.99 73.33 339.99 56.67 340.00 40.00 Z" />
<path fill="#000000" d=" M 50.01 50.01 C 60.01 49.99 70.00 50.01 79.99 50.00 C 80.00 60.00 80.00 70.00 80.00 80.00 C 70.00 80.00 60.00 80.00 50.00 80.00 C 50.00 70.00 49.99 60.01 50.01 50.01 Z" />
<path fill="#000000" d=" M 210.00 50.01 C 216.66 50.01 223.33 49.98 229.99 50.01 C 230.01 53.34 230.00 56.67 229.99 60.00 C 223.33 59.99 216.67 60.01 210.01 59.99 C 210.00 56.66 209.99 53.33 210.00 50.01 Z" />
<path fill="#000000" d=" M 350.00 50.01 C 360.00 49.99 369.99 50.00 379.99 50.01 C 380.00 60.00 380.00 70.00 379.99 80.00 C 370.00 80.00 360.00 80.00 350.01 80.00 C 350.00 70.00 350.00 60.01 350.00 50.01 Z" />
<path fill="#000000" d=" M 110.00 60.01 C 113.34 60.00 116.67 60.00 120.00 60.01 C 120.00 63.34 120.00 66.67 120.00 70.00 C 126.67 70.01 133.33 70.01 140.00 70.00 C 140.00 66.67 140.01 63.34 140.01 60.01 C 153.34 60.00 166.66 60.00 179.98 60.01 C 180.00 63.34 180.01 66.67 179.99 70.00 C 173.33 70.01 166.66 69.98 160.00 70.00 C 160.00 73.33 160.00 76.66 160.00 80.00 C 156.67 80.00 153.33 80.00 150.00 79.99 C 150.00 76.67 150.00 73.34 150.00 70.01 C 146.67 69.99 143.34 69.98 140.01 70.00 C 139.99 73.33 140.00 76.66 139.99 80.00 C 136.66 80.00 133.33 80.00 130.00 80.00 C 130.00 83.33 130.00 86.66 129.99 89.99 C 126.66 90.00 123.33 89.99 120.00 90.00 C 120.00 93.33 120.00 96.66 120.00 99.99 C 116.67 100.00 113.34 100.00 110.01 99.99 C 110.00 86.66 110.00 73.34 110.00 60.01 Z" />
<path fill="#000000" d=" M 230.01 60.01 C 233.34 60.00 236.67 60.00 240.00 60.01 C 240.00 63.34 240.00 66.67 240.00 70.00 C 236.66 70.00 233.33 70.00 230.00 69.99 C 229.98 66.66 229.99 63.34 230.01 60.01 Z" />
<path fill="#fefefe" d=" M 280.00 70.00 C 286.67 69.99 293.33 69.99 300.00 70.00 C 300.01 73.33 300.01 76.67 300.00 80.00 C 293.33 80.00 286.66 80.00 280.00 80.00 C 280.00 76.67 279.99 73.33 280.00 70.00 Z" />
<path fill="#fefefe" d=" M 190.00 80.00 C 193.33 80.00 196.67 80.00 200.00 80.00 C 200.00 83.33 200.00 86.67 200.00 90.00 C 196.67 90.00 193.34 90.01 190.01 90.00 C 190.00 86.67 190.00 83.34 190.00 80.00 Z" />
<path fill="#fefefe" d=" M 260.00 80.00 C 266.67 80.00 273.33 80.00 280.00 80.00 C 280.00 83.33 280.00 86.67 280.00 90.00 C 276.67 90.00 273.34 90.00 270.01 90.01 C 270.00 93.34 270.00 96.67 270.00 100.00 C 266.67 100.01 263.34 100.01 260.01 99.99 C 259.99 93.33 259.99 86.66 260.00 80.00 Z" />
<path fill="#000000" d=" M 130.00 90.01 C 133.33 90.00 136.66 90.00 140.00 90.01 C 139.99 93.33 140.00 96.66 140.01 99.99 C 143.34 100.00 146.66 100.01 149.99 100.00 C 150.00 103.33 150.01 106.66 150.00 109.99 C 143.34 109.99 136.67 110.02 130.01 109.99 C 130.00 103.33 129.99 96.67 130.00 90.01 Z" />
<path fill="#000000" d=" M 150.00 90.01 C 153.33 90.00 156.66 90.00 159.99 90.00 C 160.00 93.34 160.00 96.67 160.00 100.00 C 156.67 100.00 153.34 100.00 150.01 99.99 C 149.99 96.66 149.98 93.33 150.00 90.01 Z" />
<path fill="#fefefe" d=" M 200.00 90.00 C 203.34 89.99 206.67 89.99 210.01 90.01 C 210.02 93.34 210.01 96.66 210.00 99.99 C 206.66 100.00 203.33 100.01 200.00 100.00 C 199.99 96.67 199.99 93.34 200.00 90.00 Z" />
<path fill="#fefefe" d=" M 220.00 90.00 C 223.33 89.99 226.66 89.99 229.99 90.01 C 230.01 93.34 230.01 96.67 230.00 100.00 C 226.67 100.01 223.34 100.01 220.01 99.99 C 219.99 96.66 219.99 93.33 220.00 90.00 Z" />
<path fill="#fefefe" d=" M 240.00 90.00 C 243.34 89.99 246.67 89.99 250.01 90.01 C 250.02 93.33 250.01 96.66 250.00 99.99 C 246.66 100.00 243.33 100.01 240.00 100.00 C 240.00 96.67 240.00 93.33 240.00 90.00 Z" />
<path fill="#000000" d=" M 60.01 110.00 C 63.33 109.99 66.66 110.00 69.99 110.01 C 70.00 120.01 70.00 130.00 69.99 140.00 C 66.67 139.99 63.34 140.00 60.01 140.01 C 59.99 143.34 59.98 146.67 60.00 150.00 C 63.33 150.01 66.67 150.01 70.00 149.99 C 70.01 146.66 70.00 143.34 70.01 140.01 C 76.67 139.99 83.33 139.99 89.99 140.01 C 90.00 143.34 89.98 146.66 90.00 149.99 C 93.33 150.01 96.66 150.01 100.00 150.00 C 100.01 146.67 100.00 143.34 100.01 140.01 C 103.34 140.00 106.67 140.01 110.00 139.99 C 109.99 136.67 110.00 133.34 110.00 130.01 C 113.33 130.00 116.66 130.00 120.00 130.01 C 120.00 133.34 119.99 136.67 120.00 140.00 C 126.66 140.02 133.32 139.99 139.98 140.01 C 140.00 143.34 140.01 146.67 139.99 150.00 C 133.33 150.01 126.66 149.98 120.00 150.00 C 120.00 153.33 120.00 156.66 120.00 160.00 C 110.00 160.00 100.00 160.00 90.00 160.00 C 90.00 163.33 90.00 166.66 89.99 169.99 C 86.66 170.00 83.33 169.99 80.00 170.00 C 79.99 173.33 80.00 176.67 80.00 180.00 C 83.33 180.00 86.66 180.00 89.99 180.01 C 90.00 183.34 90.01 186.67 90.01 190.00 C 93.34 190.00 96.67 190.00 99.99 190.00 C 100.00 193.33 100.00 196.66 100.00 200.00 C 93.33 200.00 86.67 200.00 80.00 200.00 C 80.00 196.67 80.00 193.33 80.00 190.00 C 76.67 189.99 73.34 189.99 70.01 190.00 C 70.00 193.33 70.00 196.66 70.00 200.00 C 73.33 200.00 76.67 200.00 80.00 200.00 C 80.00 206.66 80.00 213.33 80.00 219.99 C 76.67 220.00 73.34 220.00 70.01 219.99 C 69.99 213.33 70.02 206.66 69.99 200.00 C 66.66 200.00 63.33 200.00 60.00 200.00 C 59.99 190.00 60.02 180.00 60.00 170.00 C 56.67 169.99 53.34 169.99 50.01 169.99 C 50.00 166.66 50.00 163.33 50.00 160.00 C 46.66 160.00 43.33 160.00 40.00 160.00 C 40.00 170.00 40.00 180.00 40.00 190.00 C 43.33 190.00 46.66 190.00 49.98 190.01 C 50.01 196.67 50.00 203.33 49.99 209.99 C 46.66 210.00 43.33 209.99 40.00 210.00 C 39.99 220.00 40.00 230.00 40.00 240.00 C 36.67 240.00 33.34 240.00 30.00 240.00 C 30.01 230.00 29.99 220.00 30.01 210.01 C 33.34 210.00 36.67 210.00 40.00 210.00 C 40.00 203.33 40.00 196.67 40.00 190.00 C 36.66 189.99 33.33 190.00 29.99 189.99 C 30.02 169.99 29.99 150.00 30.01 130.01 C 33.34 130.00 36.67 130.00 40.00 130.00 C 40.00 126.66 40.00 123.33 40.00 120.00 C 43.33 120.00 46.66 120.00 50.00 120.01 C 50.00 123.33 49.99 126.66 50.00 129.99 C 53.33 130.01 56.66 130.01 60.00 130.00 C 60.02 123.33 59.99 116.67 60.01 110.00 Z" />
<path fill="#000000" d=" M 90.01 110.01 C 93.34 110.00 96.67 109.99 100.00 110.00 C 100.00 113.33 100.00 116.66 100.00 120.00 C 96.66 120.00 93.33 120.00 90.00 120.00 C 90.00 116.67 90.00 113.34 90.01 110.01 Z" />
<path fill="#fefefe" d=" M 180.01 110.00 C 183.34 109.99 186.66 109.99 189.99 110.00 C 190.00 113.33 190.00 116.66 190.00 120.00 C 186.66 120.00 183.33 120.00 180.00 120.00 C 179.99 116.66 180.00 113.33 180.01 110.00 Z" />
<path fill="#fefefe" d=" M 230.01 110.00 C 233.34 109.99 236.67 109.99 240.00 110.00 C 240.00 113.33 240.00 116.67 240.00 120.00 C 236.67 120.00 233.33 120.00 230.00 120.00 C 229.99 116.67 230.00 113.33 230.01 110.00 Z" />
<path fill="#000000" d=" M 340.01 110.00 C 350.00 110.01 359.99 109.99 369.99 110.01 C 369.99 113.34 369.99 116.67 370.00 120.00 C 373.33 120.00 376.66 120.00 380.00 120.00 C 380.00 116.66 380.00 113.33 380.00 110.00 C 386.67 110.00 393.33 110.00 400.00 110.01 C 400.00 133.33 400.00 156.66 400.00 179.99 C 396.67 180.00 393.34 180.00 390.01 179.99 C 390.00 176.66 389.99 173.33 389.99 170.01 C 386.66 169.99 383.33 169.99 380.00 170.00 C 379.99 173.33 379.99 176.66 380.00 179.99 C 376.67 180.00 373.34 180.01 370.01 179.99 C 369.99 176.66 369.99 173.33 370.00 170.01 C 373.33 170.01 376.66 170.01 379.99 169.99 C 380.00 166.66 380.00 163.33 380.00 160.01 C 383.33 159.99 386.66 160.01 390.00 160.00 C 390.01 150.00 390.01 140.00 389.99 130.01 C 379.99 129.99 370.00 129.99 360.00 130.00 C 359.99 136.67 360.00 143.33 359.99 150.00 C 356.66 150.00 353.33 149.99 350.01 150.00 C 349.99 160.00 350.01 169.99 349.99 179.99 C 336.66 180.00 323.34 180.00 310.01 179.99 C 309.99 176.66 309.98 173.33 310.00 170.01 C 316.67 169.99 323.33 170.02 329.99 169.99 C 330.01 163.33 329.99 156.67 330.01 150.01 C 336.67 149.97 343.34 150.03 350.00 149.99 C 350.01 146.66 350.01 143.33 350.00 140.00 C 343.33 139.98 336.67 140.02 330.01 139.99 C 330.00 136.66 329.99 133.33 330.00 130.01 C 340.00 129.99 350.00 130.01 360.00 130.00 C 360.00 126.67 360.00 123.33 360.00 120.00 C 353.33 120.00 346.67 120.00 340.01 120.00 C 340.00 116.66 340.00 113.33 340.01 110.00 Z" />
<path fill="#000000" d=" M 130.00 120.00 C 133.33 120.00 136.66 120.00 140.00 120.00 C 140.00 123.34 140.00 126.67 139.99 130.00 C 136.66 130.01 133.33 130.00 130.01 129.99 C 130.00 126.66 130.00 123.33 130.00 120.00 Z" />
<path fill="#fefefe" d=" M 190.00 120.00 C 193.33 120.00 196.67 120.00 200.00 120.00 C 200.00 123.33 200.00 126.67 200.00 130.00 C 196.67 130.00 193.34 130.01 190.01 130.01 C 190.00 126.67 190.00 123.34 190.00 120.00 Z" />
<path fill="#fefefe" d=" M 210.00 120.00 C 213.33 120.00 216.66 120.00 220.00 120.00 C 220.01 123.33 220.01 126.67 219.99 130.00 C 216.66 130.02 213.33 130.01 210.00 129.99 C 209.99 126.66 209.99 123.33 210.00 120.00 Z" />
<path fill="#000000" d=" M 90.01 130.01 C 93.34 129.99 96.67 129.99 100.00 130.01 C 100.00 133.33 100.00 136.66 99.99 139.99 C 96.66 140.00 93.34 140.00 90.01 140.00 C 90.00 136.67 89.99 133.34 90.01 130.01 Z" />
<path fill="#000000" d=" M 150.00 130.01 C 153.33 130.00 156.66 130.00 159.99 130.00 C 160.00 133.33 160.00 136.66 160.00 140.00 C 156.67 140.00 153.34 140.00 150.01 139.99 C 149.99 136.66 149.98 133.34 150.00 130.01 Z" />
<path fill="#000000" d=" M 250.01 140.01 C 253.33 139.99 256.66 139.99 259.99 140.01 C 260.00 146.67 260.00 153.33 260.00 160.00 C 256.66 160.00 253.33 160.00 250.00 160.00 C 250.00 153.33 250.00 146.67 250.01 140.01 Z" />
<path fill="#000000" d=" M 280.00 140.01 C 283.33 140.00 286.66 140.00 289.99 140.01 C 290.01 150.00 289.98 160.00 290.01 170.00 C 293.33 170.00 296.66 170.01 299.99 170.01 C 299.99 173.33 300.00 176.66 300.01 179.99 C 303.34 180.00 306.66 180.01 309.99 180.00 C 310.00 186.67 310.00 193.33 310.00 200.00 C 313.33 200.00 316.67 200.00 320.00 200.00 C 320.00 196.67 320.00 193.34 320.00 190.01 C 326.67 190.00 333.33 190.00 340.00 190.00 C 340.00 196.67 340.00 203.33 340.00 210.00 C 333.33 210.01 326.66 209.98 320.00 210.00 C 319.99 213.33 320.00 216.66 320.00 219.99 C 316.67 220.00 313.33 220.00 310.01 219.99 C 309.99 213.33 310.02 206.66 310.00 200.00 C 306.66 200.00 303.33 200.00 300.00 200.00 C 300.00 196.67 300.00 193.33 300.00 190.00 C 293.33 189.99 286.67 189.99 280.00 190.00 C 280.00 196.67 280.00 203.33 280.00 209.99 C 276.66 210.00 273.33 210.00 270.00 209.99 C 269.99 203.34 270.00 196.68 270.00 190.03 C 268.04 190.00 266.08 189.98 264.13 189.96 C 264.15 186.64 264.15 183.33 264.15 180.01 C 266.09 180.00 268.04 179.99 269.99 179.99 C 270.00 183.33 269.99 186.66 270.00 190.00 C 273.33 190.00 276.66 190.01 280.00 190.00 C 280.00 186.67 280.00 183.33 280.00 180.00 C 276.67 179.99 273.34 180.00 270.01 179.99 C 269.99 173.33 270.00 166.67 270.01 160.00 C 273.34 160.00 276.67 160.00 280.00 160.00 C 280.00 153.34 280.00 146.67 280.00 140.01 Z" />
<path fill="#000000" d=" M 300.01 140.01 C 303.34 140.00 306.67 139.99 310.00 140.00 C 310.00 146.67 310.00 153.33 310.00 160.00 C 306.67 160.00 303.33 160.00 300.00 160.00 C 300.00 153.33 300.00 146.67 300.01 140.01 Z" />
<path fill="#fefefe" d=" M 49.99 150.01 C 53.33 149.99 56.66 149.98 59.99 150.00 C 60.01 153.33 60.01 156.66 60.00 160.00 C 56.67 160.00 53.33 160.00 50.00 160.00 C 49.99 156.67 49.99 153.34 49.99 150.01 Z" />
<path fill="#fefefe" d=" M 70.01 150.00 C 76.67 149.99 83.33 149.99 89.99 150.00 C 90.00 153.33 90.00 156.67 90.00 160.00 C 86.66 160.00 83.33 160.00 80.00 160.00 C 80.00 163.33 80.00 166.66 80.00 170.00 C 73.34 170.00 66.67 170.01 60.01 170.00 C 59.99 166.67 59.99 163.33 60.00 160.00 C 63.33 160.00 66.66 160.00 70.00 160.00 C 70.00 156.67 70.00 153.33 70.01 150.00 Z" />
<path fill="#000000" d=" M 150.01 150.01 C 156.67 149.99 163.33 150.00 169.99 150.01 C 170.00 153.34 169.99 156.67 170.01 160.00 C 173.34 160.02 176.67 160.00 180.00 160.02 C 180.01 161.92 180.01 163.82 180.01 165.72 C 176.51 166.05 173.43 167.73 170.59 169.68 C 167.16 170.46 163.51 169.80 160.00 169.99 C 160.00 166.66 160.00 163.33 160.00 160.00 C 156.67 160.00 153.34 160.00 150.00 160.00 C 150.00 163.33 150.00 166.67 150.01 170.00 C 153.34 170.01 156.67 170.00 160.00 169.99 C 160.00 179.99 160.00 189.99 160.00 199.98 C 161.95 199.99 163.91 200.01 165.86 200.03 C 165.84 210.01 165.82 219.99 165.88 229.96 C 163.92 229.98 161.96 230.01 160.00 230.03 C 160.00 233.35 160.00 236.67 160.00 240.00 C 156.67 240.00 153.34 240.00 150.01 240.00 C 149.99 246.66 150.00 253.33 149.99 260.00 C 146.67 260.00 143.34 260.00 140.01 259.99 C 140.00 253.33 139.99 246.66 140.01 240.00 C 143.34 240.00 146.67 240.00 150.00 240.00 C 150.00 236.67 150.00 233.34 150.01 230.01 C 153.34 230.00 156.67 230.00 160.00 230.00 C 160.01 223.33 159.99 216.67 160.00 210.00 C 156.67 209.99 153.34 210.00 150.01 209.99 C 149.98 196.66 150.02 183.34 150.00 170.01 C 143.34 169.97 136.67 170.02 130.01 169.99 C 130.00 166.66 130.00 163.33 130.00 160.00 C 136.67 160.00 143.33 160.00 150.00 160.00 C 150.00 156.67 150.00 153.34 150.01 150.01 Z" />
<path fill="#000000" d=" M 230.01 150.01 C 233.34 150.00 236.67 149.99 240.00 150.00 C 240.00 153.33 240.00 156.67 240.00 160.00 C 236.66 160.00 233.33 160.00 230.00 160.00 C 229.99 156.67 230.00 153.34 230.01 150.01 Z" />
<path fill="#000000" d=" M 369.99 150.02 C 373.32 150.00 376.66 149.99 379.99 150.00 C 380.00 153.33 380.00 156.67 380.00 160.01 C 376.86 160.30 373.46 159.29 370.49 160.49 C 369.29 163.46 370.29 166.85 370.00 169.99 C 366.66 170.00 363.33 170.00 360.00 169.99 C 360.00 166.66 360.00 163.33 360.01 159.99 C 363.26 159.86 366.58 160.35 369.80 159.80 C 370.35 156.58 369.86 153.27 369.99 150.02 Z" />
<path fill="#fefefe" d=" M 150.00 160.00 C 153.34 160.00 156.67 160.00 160.00 160.00 C 160.00 163.33 160.00 166.66 160.00 169.99 C 156.67 170.00 153.34 170.01 150.01 170.00 C 150.00 166.67 150.00 163.33 150.00 160.00 Z" />
<path fill="#000000" d=" M 210.00 160.01 C 216.67 160.00 223.33 159.99 230.00 160.01 C 230.01 161.96 230.01 163.91 230.01 165.86 C 223.34 165.84 216.66 165.84 209.99 165.86 C 209.98 163.91 209.99 161.96 210.00 160.01 Z" />
<path fill="#000000" d=" M 90.00 170.01 C 100.00 170.00 109.99 170.00 119.99 170.00 C 120.00 173.33 120.00 176.66 120.00 180.00 C 110.00 180.00 100.00 180.00 90.01 180.00 C 90.00 176.67 89.99 173.34 90.00 170.01 Z" />
<path fill="#000000" d=" M 380.00 180.01 C 383.33 180.00 386.66 179.99 390.00 180.00 C 390.00 183.33 390.00 186.66 389.99 189.99 C 386.66 189.99 383.33 190.00 380.01 190.01 C 379.99 196.67 379.99 203.33 380.00 210.00 C 383.33 210.01 386.66 210.01 390.00 209.99 C 390.00 206.66 390.00 203.33 390.00 200.01 C 393.33 200.00 396.66 200.00 400.00 200.00 C 400.00 210.00 400.00 220.00 400.00 230.00 C 396.66 230.00 393.34 229.99 390.01 230.00 C 389.99 233.33 389.99 236.67 390.01 240.00 C 393.33 240.00 396.66 240.00 400.00 240.00 C 400.00 246.67 400.00 253.33 400.00 260.00 C 396.66 260.00 393.33 260.00 390.00 260.01 C 389.99 266.67 390.00 273.34 390.00 280.00 C 393.33 280.00 396.66 280.00 400.00 280.00 C 400.00 290.00 400.00 300.00 400.00 310.00 C 396.66 310.00 393.34 309.99 390.01 310.00 C 389.99 313.33 389.99 316.67 390.01 320.00 C 393.33 320.00 396.66 320.00 400.00 320.00 C 400.00 326.66 400.00 333.33 400.00 339.99 C 393.33 340.01 386.67 339.98 380.01 340.01 C 379.99 343.34 379.98 346.67 380.00 350.00 C 383.33 350.01 386.66 350.00 389.99 350.01 C 390.00 353.34 390.00 356.67 390.00 360.00 C 393.33 360.00 396.66 360.00 400.00 360.00 C 400.00 366.66 400.00 373.33 400.00 379.99 C 396.66 380.00 393.33 380.00 390.01 379.99 C 390.00 376.66 389.99 373.33 389.99 370.01 C 386.66 369.99 383.33 369.98 380.00 370.00 C 379.99 373.33 379.99 376.66 379.99 379.99 C 376.66 380.00 373.33 380.00 370.01 380.00 C 369.99 373.33 370.00 366.67 370.00 360.00 C 356.66 360.00 343.33 360.00 330.00 360.00 C 329.99 363.33 329.99 366.66 329.99 369.99 C 326.66 370.00 323.33 370.00 320.00 369.99 C 320.00 366.66 320.00 363.33 320.00 360.00 C 316.67 359.99 313.34 360.00 310.01 360.00 C 309.99 353.33 310.02 346.67 310.00 340.00 C 306.66 339.99 303.33 339.99 300.01 340.00 C 300.00 336.66 300.00 333.33 300.00 330.01 C 296.67 329.99 293.34 329.99 290.01 329.99 C 290.00 326.66 289.99 323.33 290.00 320.00 C 293.33 320.00 296.66 320.00 300.00 320.00 C 300.01 316.67 300.00 313.33 300.00 310.00 C 293.33 309.99 286.67 309.99 280.00 310.00 C 280.00 320.00 280.00 330.00 280.00 339.99 C 276.67 340.00 273.34 340.00 270.01 339.99 C 269.99 333.33 270.01 326.66 270.00 320.00 C 266.66 320.00 263.33 319.99 260.00 320.00 C 259.99 323.33 260.00 326.66 260.00 330.00 C 253.33 330.00 246.67 330.00 240.00 330.00 C 240.00 326.66 240.00 323.33 240.00 320.00 C 243.33 320.00 246.66 320.00 250.00 320.00 C 250.00 316.67 250.00 313.34 250.01 310.01 C 256.67 309.98 263.33 310.02 269.99 309.99 C 270.01 303.33 270.01 296.67 269.99 290.01 C 266.66 289.99 263.33 289.99 260.00 290.00 C 260.00 293.33 259.99 296.66 259.99 299.99 C 256.66 300.01 253.33 300.01 250.00 299.99 C 250.00 296.66 250.02 293.33 250.01 290.01 C 246.67 289.99 243.34 289.99 240.00 290.00 C 239.99 293.33 240.00 296.66 240.00 300.00 C 236.66 299.99 233.33 300.00 230.00 300.01 C 229.99 303.33 229.99 306.66 230.00 309.99 C 226.66 310.00 223.33 310.00 220.00 309.99 C 220.00 306.66 220.00 303.33 219.99 300.01 C 213.33 299.99 206.66 299.99 200.00 300.00 C 200.00 303.33 200.00 306.66 200.00 310.00 C 203.33 310.00 206.66 310.00 209.99 310.01 C 210.00 313.34 210.00 316.67 209.99 320.00 C 203.33 320.00 196.67 320.00 190.00 320.00 C 190.00 326.66 190.00 333.33 190.00 339.99 C 196.66 340.02 203.33 339.99 209.99 340.01 C 210.01 343.34 210.01 346.66 209.99 350.00 C 206.66 349.99 203.33 349.99 200.00 350.00 C 199.99 353.33 200.00 356.67 200.00 360.00 C 193.33 360.00 186.67 360.00 180.01 360.00 C 179.99 343.33 180.02 326.67 179.99 310.01 C 176.67 310.00 173.34 309.99 170.01 309.99 C 170.01 306.66 170.00 303.33 169.99 300.01 C 166.66 300.00 163.33 299.99 160.00 300.00 C 159.99 306.67 160.00 313.33 160.00 320.00 C 163.33 320.00 166.66 320.00 169.99 320.00 C 170.00 326.67 170.00 333.33 169.99 339.99 C 166.66 339.99 163.33 340.00 160.00 340.00 C 160.00 336.67 160.00 333.33 160.00 330.00 C 156.67 329.99 153.34 329.99 150.01 329.99 C 150.00 326.66 150.00 323.33 150.00 320.00 C 140.00 320.00 130.00 320.00 120.01 320.00 C 119.99 316.67 120.00 313.33 120.00 310.00 C 113.33 309.99 106.67 309.98 100.01 310.01 C 99.99 313.33 100.00 316.66 100.00 320.00 C 96.66 320.00 93.33 320.00 90.00 320.00 C 90.00 316.66 90.00 313.33 89.99 310.00 C 86.66 309.99 83.33 310.00 80.00 310.00 C 80.00 303.33 80.01 296.67 80.00 290.00 C 76.66 289.99 73.32 289.99 69.99 290.01 C 70.00 300.00 70.00 310.00 70.00 320.00 C 56.67 320.00 43.34 320.00 30.01 320.00 C 30.00 316.67 30.00 313.34 30.02 310.01 C 33.34 310.00 36.67 310.00 40.00 310.00 C 40.00 306.66 40.00 303.33 40.00 300.00 C 46.66 299.99 53.33 300.02 59.99 299.99 C 60.02 293.33 59.99 286.67 60.01 280.00 C 66.67 280.00 73.33 280.00 80.00 280.00 C 80.00 283.33 80.00 286.66 80.00 290.00 C 86.66 290.00 93.33 290.01 99.99 290.00 C 100.01 286.66 100.01 283.33 99.99 280.00 C 96.66 280.00 93.33 280.00 90.00 280.00 C 90.00 276.67 90.00 273.33 89.99 270.00 C 80.00 269.98 70.00 270.01 60.00 269.99 C 60.00 263.33 60.00 256.67 60.00 250.01 C 63.33 249.99 66.66 249.99 69.99 250.01 C 69.99 253.34 69.99 256.66 70.00 259.99 C 73.33 260.00 76.67 260.01 80.00 260.00 C 80.00 253.33 80.00 246.66 80.00 240.00 C 83.33 240.00 86.66 240.00 90.00 240.00 C 90.00 236.67 90.00 233.34 90.01 230.02 C 96.67 229.98 103.33 230.03 109.99 229.99 C 110.01 223.33 110.01 216.67 109.99 210.01 C 106.66 209.99 103.33 209.98 100.00 210.00 C 100.00 213.33 99.99 216.66 99.99 219.99 C 96.66 220.00 93.33 220.01 90.01 219.99 C 89.99 216.66 89.99 213.34 90.01 210.01 C 93.34 210.01 96.66 210.00 99.99 209.99 C 100.00 206.66 100.00 203.33 100.00 200.00 C 106.67 200.00 113.33 200.00 120.00 200.00 C 120.00 203.33 120.00 206.66 120.00 210.00 C 123.33 210.00 126.66 210.00 129.99 210.00 C 130.00 206.66 130.00 203.33 130.00 200.00 C 126.66 200.00 123.33 200.00 120.00 200.00 C 120.00 196.67 120.00 193.33 120.00 190.00 C 126.67 190.00 133.33 190.00 140.00 190.00 C 140.01 196.67 139.98 203.33 140.01 210.00 C 143.33 210.01 146.66 210.01 150.00 210.01 C 150.01 213.33 150.00 216.66 149.99 219.99 C 143.33 220.02 136.66 219.97 130.00 220.00 C 130.00 223.33 129.99 226.66 129.99 229.99 C 126.66 230.00 123.33 229.99 120.00 230.00 C 120.00 233.33 120.00 236.67 120.00 240.00 C 110.00 240.00 100.00 240.00 90.00 240.00 C 89.99 243.33 89.99 246.67 90.01 250.00 C 96.67 250.02 103.33 249.97 109.99 250.01 C 109.99 253.34 109.99 256.66 110.00 259.99 C 113.33 260.00 116.66 260.00 120.00 260.00 C 120.00 266.67 120.00 273.33 120.00 280.00 C 116.67 280.00 113.34 280.00 110.00 280.00 C 110.00 283.33 110.00 286.67 110.00 290.00 C 113.34 290.00 116.67 290.00 120.00 290.00 C 120.00 286.66 120.00 283.33 120.00 280.00 C 123.33 280.00 126.66 280.00 130.00 280.00 C 130.00 283.33 130.00 286.66 129.99 289.99 C 126.66 289.99 123.33 289.99 120.00 290.00 C 119.99 296.67 120.00 303.33 120.00 310.00 C 130.00 310.00 139.99 310.02 149.99 309.99 C 150.01 303.33 150.01 296.67 149.99 290.01 C 146.66 290.00 143.33 290.00 140.01 290.00 C 140.00 283.33 140.00 276.67 140.01 270.00 C 143.34 270.00 146.67 269.99 150.00 270.00 C 150.01 266.67 150.00 263.34 150.00 260.01 C 153.33 260.00 156.67 259.99 160.00 260.01 C 160.00 263.34 160.00 266.67 159.99 270.00 C 156.66 270.00 153.34 269.99 150.01 270.00 C 150.00 273.33 150.00 276.67 150.00 280.00 C 160.00 280.00 170.00 280.00 180.00 280.00 C 179.99 290.00 179.98 300.00 180.00 310.01 C 183.33 310.01 186.66 310.00 189.99 310.00 C 190.01 300.00 190.01 290.00 189.99 280.00 C 186.66 280.00 183.33 280.00 180.00 280.00 C 180.00 276.67 180.00 273.34 179.99 270.02 C 176.67 270.01 173.34 269.99 170.02 270.00 C 169.99 266.68 169.97 263.36 169.95 260.04 C 166.63 260.02 163.32 260.00 160.00 259.99 C 160.02 253.33 159.99 246.66 160.01 240.00 C 161.95 239.99 163.90 239.99 165.84 239.99 C 166.15 245.20 164.94 250.79 167.31 255.65 C 169.74 260.78 175.28 264.31 180.97 264.13 C 187.39 264.19 193.82 264.12 200.25 264.15 C 200.19 266.08 200.12 268.01 200.04 269.95 C 203.35 269.90 206.66 269.90 209.96 269.95 C 209.88 268.02 209.81 266.09 209.75 264.16 C 213.25 264.14 216.74 264.15 220.25 264.16 C 220.18 266.09 220.10 268.03 220.03 269.97 C 223.34 269.91 226.66 269.89 229.97 269.96 C 229.88 268.02 229.80 266.09 229.73 264.15 C 236.49 264.10 243.26 264.24 250.02 264.10 C 253.87 264.18 257.15 261.90 260.13 259.74 C 260.07 263.15 260.02 266.57 260.00 269.99 C 266.66 270.01 273.33 270.01 280.00 270.00 C 280.00 266.66 280.00 263.33 280.00 260.00 C 286.66 260.00 293.32 259.99 299.99 260.01 C 299.98 263.34 300.00 266.67 300.00 270.00 C 303.34 270.01 306.67 270.01 310.00 269.99 C 310.03 263.33 309.97 256.67 310.01 250.01 C 313.34 250.00 316.67 250.00 320.00 250.00 C 320.00 246.66 320.00 243.33 320.00 240.00 C 323.33 240.00 326.66 240.00 330.00 240.00 C 330.00 236.67 330.00 233.34 330.01 230.01 C 333.34 230.01 336.66 230.01 340.00 229.99 C 340.00 226.66 340.01 223.34 340.02 220.01 C 346.68 219.99 353.34 220.00 360.00 220.00 C 359.99 226.67 360.00 233.33 360.00 240.00 C 353.33 240.00 346.67 239.99 340.00 240.00 C 339.99 243.33 339.99 246.66 340.00 249.99 C 350.00 250.01 359.99 250.01 369.99 249.99 C 369.99 246.66 370.00 243.33 370.00 240.00 C 373.33 240.00 376.67 240.00 380.00 240.00 C 380.00 236.67 380.00 233.34 380.00 230.01 C 376.67 230.00 373.34 229.99 370.01 229.99 C 370.01 226.66 370.00 223.33 369.99 220.01 C 366.66 220.00 363.33 219.99 360.00 220.00 C 360.00 216.67 360.00 213.33 360.00 210.00 C 356.67 209.99 353.34 209.99 350.01 209.99 C 350.00 206.66 349.99 203.33 350.01 200.00 C 353.34 200.00 356.67 200.00 360.00 200.00 C 360.00 196.67 359.99 193.34 360.00 190.01 C 366.67 189.99 373.33 190.02 380.00 190.00 C 380.01 186.67 380.00 183.34 380.00 180.01 Z" />
<path fill="#fefefe" d=" M 70.01 190.00 C 73.34 189.99 76.67 189.99 80.00 190.00 C 80.00 193.33 80.00 196.67 80.00 200.00 C 76.67 200.00 73.33 200.00 70.00 200.00 C 70.00 196.66 70.00 193.33 70.01 190.00 Z" />
<path fill="#fefefe" d=" M 120.00 200.00 C 123.33 200.00 126.66 200.00 130.00 200.00 C 130.00 203.33 130.00 206.66 129.99 210.00 C 126.66 210.00 123.33 210.00 120.00 210.00 C 120.00 206.66 120.00 203.33 120.00 200.00 Z" />
<path fill="#000000" d=" M 290.00 200.00 C 293.33 200.00 296.66 200.00 300.00 200.00 C 300.00 206.66 300.00 213.33 299.99 219.99 C 296.66 220.01 293.33 220.01 290.01 219.99 C 290.00 213.33 290.00 206.67 290.00 200.00 Z" />
<path fill="#000000" d=" M 50.00 210.01 C 53.33 210.00 56.66 210.00 60.00 210.01 C 59.99 213.33 60.00 216.66 60.01 219.99 C 63.34 220.00 66.67 220.01 70.00 220.01 C 69.99 223.33 69.98 226.66 70.00 229.99 C 73.33 230.00 76.66 230.00 79.99 230.00 C 80.00 233.33 80.00 236.67 80.00 240.00 C 73.33 240.00 66.67 240.00 60.00 240.00 C 60.00 236.66 60.00 233.33 60.00 230.00 C 56.67 229.99 53.34 229.99 50.01 229.99 C 50.00 223.33 49.99 216.67 50.00 210.01 Z" />
<path fill="#000000" d=" M 264.14 220.01 C 269.43 219.97 274.71 220.01 280.00 220.01 C 280.00 223.33 280.00 226.66 279.99 230.00 C 274.71 229.99 269.43 230.03 264.15 229.99 C 264.16 226.66 264.15 223.34 264.14 220.01 Z" />
<path fill="#fefefe" d=" M 360.00 220.00 C 363.33 219.99 366.66 220.00 369.99 220.01 C 370.00 223.33 370.01 226.66 370.01 229.99 C 373.34 229.99 376.67 230.00 380.00 230.01 C 380.00 233.34 380.00 236.67 380.00 240.00 C 376.67 240.00 373.33 240.00 370.00 240.00 C 370.00 243.33 369.99 246.66 369.99 249.99 C 359.99 250.01 350.00 250.01 340.00 249.99 C 339.99 246.66 339.99 243.33 340.00 240.00 C 346.67 239.99 353.33 240.00 360.00 240.00 C 360.00 233.33 359.99 226.67 360.00 220.00 Z" />
<path fill="#fefefe" d=" M 380.01 220.01 C 383.33 219.99 386.66 219.99 390.00 220.00 C 390.01 223.33 390.01 226.66 390.00 229.99 C 386.67 230.01 383.33 230.01 380.00 230.00 C 379.98 226.67 379.98 223.34 380.01 220.01 Z" />
<path fill="#000000" d=" M 290.01 230.01 C 300.00 229.99 310.00 230.01 320.00 230.00 C 320.00 233.33 320.00 236.67 320.00 240.00 C 310.00 240.00 300.00 240.00 290.00 240.00 C 289.99 236.67 290.00 233.34 290.01 230.01 Z" />
<path fill="#000000" d=" M 120.00 240.00 C 123.33 240.00 126.66 240.00 130.00 240.00 C 130.00 243.33 130.00 246.66 129.99 249.99 C 126.66 250.00 123.33 250.00 120.00 250.00 C 120.00 246.66 120.00 243.33 120.00 240.00 Z" />
<path fill="#000000" d=" M 270.00 240.00 C 273.33 240.00 276.66 240.00 280.00 240.00 C 280.00 246.67 280.00 253.33 280.00 260.00 C 276.66 260.00 273.33 260.00 270.00 259.99 C 270.00 253.33 270.00 246.67 270.00 240.00 Z" />
<path fill="#fefefe" d=" M 320.00 250.00 C 326.66 249.99 333.33 249.99 340.00 250.00 C 340.00 253.33 340.01 256.66 340.02 259.99 C 343.34 260.00 346.67 259.99 350.00 260.00 C 350.00 263.33 350.01 266.66 350.00 269.99 C 353.33 270.00 356.66 269.99 360.00 270.00 C 360.00 273.33 360.00 276.67 360.00 280.00 C 363.33 280.00 366.66 280.00 370.00 280.00 C 370.01 286.66 369.99 293.33 370.01 299.99 C 373.33 300.01 376.66 300.00 379.99 299.99 C 380.01 293.33 379.99 286.66 380.00 280.00 C 383.33 280.00 386.66 279.99 390.00 280.00 C 390.01 290.00 390.00 299.99 390.00 309.99 C 376.67 310.01 363.33 310.01 349.99 309.99 C 349.98 306.66 349.99 303.33 350.00 300.01 C 343.33 299.99 336.67 300.01 330.00 300.00 C 329.98 296.67 329.99 293.33 330.01 290.00 C 336.67 289.99 343.33 289.98 350.00 290.01 C 350.02 293.33 350.00 296.66 350.01 299.99 C 353.34 300.00 356.67 300.00 360.00 299.99 C 360.00 296.66 359.99 293.33 359.99 290.00 C 356.66 290.00 353.33 290.01 350.01 290.00 C 349.99 286.66 350.00 283.33 350.00 280.00 C 346.66 280.00 343.33 280.00 340.00 280.00 C 339.99 276.66 340.00 273.33 340.00 270.00 C 333.33 269.99 326.66 270.02 320.00 270.00 C 320.00 263.33 319.99 256.67 320.00 250.00 Z" />
<path fill="#000000" d=" M 30.01 260.01 C 36.67 260.00 43.33 260.00 49.99 260.01 C 50.01 263.33 50.02 266.66 50.00 269.99 C 43.33 270.00 36.67 270.00 30.00 269.99 C 29.98 266.66 29.99 263.33 30.01 260.01 Z" />
<path fill="#fefefe" d=" M 90.00 260.00 C 93.33 259.99 96.66 259.99 99.99 260.01 C 100.01 263.34 100.01 266.67 100.00 270.00 C 96.66 270.01 93.33 270.01 89.99 269.99 C 89.98 266.66 89.99 263.33 90.00 260.00 Z" />
<path fill="#fefefe" d=" M 360.00 260.00 C 366.66 259.99 373.33 259.99 379.99 260.01 C 380.01 266.67 380.00 273.33 380.00 280.00 C 376.66 280.00 373.33 280.00 370.00 280.00 C 369.99 276.67 369.99 273.34 369.99 270.01 C 366.66 270.00 363.33 270.00 360.00 270.00 C 359.99 266.66 359.99 263.33 360.00 260.00 Z" />
<path fill="#fefefe" d=" M 210.01 270.04 C 213.33 270.01 216.66 269.98 219.99 270.02 C 220.01 273.34 220.01 276.67 220.00 280.00 C 216.67 280.00 213.33 280.00 210.00 280.00 C 209.99 276.68 209.99 273.35 210.01 270.04 Z" />
<path fill="#fefefe" d=" M 230.00 270.04 C 240.00 270.02 250.00 270.03 259.99 269.99 C 260.01 273.33 260.01 276.66 260.00 280.00 C 253.33 280.00 246.67 279.99 240.00 280.00 C 240.00 283.33 240.00 286.66 240.00 290.00 C 233.33 290.01 226.67 290.00 220.00 290.00 C 219.99 286.67 219.99 283.33 220.00 280.00 C 223.33 280.00 226.66 280.00 230.00 280.00 C 230.00 276.68 230.00 273.36 230.00 270.04 Z" />
<path fill="#fefefe" d=" M 290.00 270.01 C 293.33 269.99 296.66 269.98 299.99 270.00 C 300.00 273.33 300.00 276.66 300.00 280.00 C 303.33 280.00 306.66 279.99 310.00 280.00 C 310.01 286.67 310.01 293.33 310.00 300.00 C 306.67 300.01 303.34 300.01 300.01 299.99 C 300.00 296.66 299.99 293.33 300.00 290.01 C 296.67 289.99 293.34 289.99 290.01 290.01 C 290.01 293.34 290.00 296.66 290.00 299.99 C 286.66 300.00 283.33 300.01 280.00 300.00 C 280.00 293.33 280.00 286.66 280.00 280.00 C 283.33 280.00 286.66 280.00 289.99 280.00 C 290.00 276.67 289.99 273.34 290.00 270.01 Z" />
<path fill="#fefefe" d=" M 310.00 270.00 C 313.33 269.99 316.67 269.99 320.00 270.00 C 320.00 273.33 320.00 276.67 320.00 280.00 C 316.66 280.00 313.33 280.00 310.00 280.00 C 310.00 276.67 310.00 273.33 310.00 270.00 Z" />
<path fill="#fefefe" d=" M 110.00 280.00 C 113.34 280.00 116.67 280.00 120.00 280.00 C 120.00 283.33 120.00 286.66 120.00 290.00 C 116.67 290.00 113.34 290.00 110.00 290.00 C 110.00 286.67 110.00 283.33 110.00 280.00 Z" />
<path fill="#fefefe" d=" M 180.00 280.00 C 183.33 280.00 186.66 280.00 189.99 280.00 C 190.01 290.00 190.01 300.00 189.99 310.00 C 186.66 310.00 183.33 310.01 180.00 310.01 C 179.98 300.00 179.99 290.00 180.00 280.00 Z" />
<path fill="#000000" d=" M 30.00 290.01 C 33.33 290.00 36.66 289.99 39.99 290.00 C 40.00 293.33 40.00 296.67 40.00 300.00 C 36.67 300.00 33.34 300.00 30.01 299.99 C 29.99 296.66 29.98 293.34 30.00 290.01 Z" />
<path fill="#fefefe" d=" M 100.00 290.00 C 103.33 289.98 106.67 289.99 110.00 290.01 C 110.02 293.34 110.01 296.67 110.00 300.00 C 106.67 300.01 103.34 300.00 100.01 300.01 C 100.00 303.34 100.01 306.67 100.00 310.00 C 96.66 310.01 93.33 310.01 89.99 309.99 C 89.98 306.66 89.99 303.33 90.01 300.00 C 93.34 299.98 96.66 300.00 100.00 299.99 C 100.00 296.66 99.99 293.33 100.00 290.00 Z" />
<path fill="#fefefe" d=" M 160.00 300.00 C 163.33 299.99 166.66 300.00 169.99 300.01 C 170.00 303.33 170.01 306.66 170.01 309.99 C 173.34 309.99 176.67 310.00 179.99 310.01 C 180.02 326.67 179.99 343.33 180.01 360.00 C 186.67 360.00 193.33 360.00 200.00 360.00 C 200.00 363.33 200.00 366.66 200.00 369.99 C 196.67 370.00 193.34 370.00 190.01 370.01 C 189.98 376.67 190.02 383.33 190.00 389.99 C 186.67 390.01 183.33 390.01 180.00 390.01 C 179.98 383.34 180.01 376.67 179.99 370.01 C 173.33 369.99 166.66 370.01 160.00 370.00 C 160.00 366.66 160.00 363.33 160.00 360.00 C 163.33 360.00 166.66 360.00 170.00 359.99 C 170.00 356.67 169.99 353.34 169.99 350.02 C 166.66 350.01 163.33 350.00 160.00 349.99 C 159.99 346.66 160.00 343.33 160.00 340.00 C 163.33 340.00 166.66 339.99 169.99 339.99 C 170.00 333.33 170.00 326.67 169.99 320.00 C 166.66 320.00 163.33 320.00 160.00 320.00 C 160.00 313.33 159.99 306.67 160.00 300.00 Z" />
<path fill="#000000" d=" M 230.01 310.01 C 233.34 310.00 236.67 310.00 240.00 310.01 C 240.00 313.33 239.99 316.67 240.00 320.00 C 236.67 320.00 233.34 320.00 230.01 320.00 C 229.99 316.67 230.00 313.34 230.01 310.01 Z" />
<path fill="#000000" d=" M 110.00 320.00 C 113.34 320.00 116.67 320.00 120.01 320.00 C 120.14 323.26 119.65 326.57 120.20 329.80 C 123.42 330.35 126.73 329.87 129.99 330.00 C 130.01 333.33 130.01 336.66 129.99 339.99 C 126.66 340.00 123.33 340.00 119.99 339.99 C 119.70 336.85 120.71 333.46 119.51 330.49 C 116.54 329.29 113.15 330.29 110.01 330.00 C 110.00 326.67 110.00 323.33 110.00 320.00 Z" />
<path fill="#fefefe" d=" M 320.00 320.00 C 330.00 320.00 340.00 320.00 350.00 320.00 C 350.01 330.00 350.01 339.99 349.99 349.99 C 339.99 350.02 330.00 350.00 320.00 350.00 C 320.00 340.00 320.00 330.00 320.00 320.00 Z" />
<path fill="#fefefe" d=" M 360.00 320.00 C 366.66 320.00 373.33 320.00 380.00 320.00 C 380.00 323.33 380.00 326.67 379.99 330.00 C 376.67 330.01 373.34 330.00 370.01 330.01 C 370.00 336.67 369.99 343.33 370.00 349.99 C 373.33 349.99 376.66 349.98 379.99 350.00 C 380.00 353.33 380.01 356.67 380.00 360.00 C 376.66 360.00 373.33 360.00 370.00 360.00 C 369.99 356.67 370.00 353.34 369.99 350.01 C 366.66 350.00 363.33 350.00 360.00 350.00 C 360.00 340.00 360.00 330.00 360.00 320.00 Z" />
<path fill="#000000" d=" M 30.00 330.01 C 53.33 330.00 76.66 330.00 99.99 330.01 C 100.00 353.34 100.00 376.67 99.99 400.00 C 76.66 400.00 53.33 400.00 30.01 400.00 C 30.00 376.67 30.01 353.34 30.00 330.01 Z" />
<path fill="#000000" d=" M 210.01 330.01 C 216.67 329.99 223.33 329.99 229.99 330.01 C 230.01 333.34 230.00 336.66 229.99 339.99 C 223.33 340.01 216.67 339.99 210.01 340.00 C 210.00 336.67 209.99 333.34 210.01 330.01 Z" />
<path fill="#000000" d=" M 330.01 330.01 C 333.34 329.99 336.66 329.99 339.99 330.00 C 340.01 333.33 340.00 336.66 339.99 339.99 C 336.66 340.00 333.33 340.01 330.01 339.99 C 329.99 336.66 329.99 333.34 330.01 330.01 Z" />
<path fill="#fefefe" d=" M 40.00 340.00 C 56.67 339.99 73.33 339.98 90.00 340.01 C 90.01 356.67 89.99 373.33 90.01 389.99 C 73.34 390.02 56.67 390.00 40.00 390.00 C 40.00 373.33 40.00 356.67 40.00 340.00 Z" />
<path fill="#000000" d=" M 140.01 340.01 C 146.68 339.99 153.34 340.00 160.00 340.00 C 160.00 343.33 159.99 346.66 160.00 349.99 C 163.33 350.00 166.66 350.01 169.99 350.02 C 169.99 353.34 170.00 356.67 170.00 359.99 C 166.66 360.00 163.33 360.00 160.00 360.00 C 160.00 356.66 160.00 353.33 160.00 350.00 C 156.67 349.99 153.34 349.99 150.01 350.00 C 150.00 353.33 150.00 356.66 150.00 360.00 C 153.33 360.00 156.67 360.00 160.00 360.00 C 160.00 363.33 160.00 366.66 160.00 370.00 C 166.66 370.01 173.33 369.99 179.99 370.01 C 180.01 376.67 179.98 383.34 180.00 390.01 C 183.33 390.01 186.67 390.01 190.00 389.99 C 190.02 383.33 189.98 376.67 190.01 370.01 C 193.34 370.00 196.67 370.00 200.00 369.99 C 200.00 366.66 200.00 363.33 200.00 360.00 C 206.66 360.00 213.33 360.00 220.00 360.00 C 220.00 356.66 220.00 353.33 220.00 350.00 C 223.33 349.99 226.66 350.00 229.99 350.01 C 230.00 353.34 230.00 356.67 230.00 360.00 C 233.33 360.00 236.66 359.99 240.00 360.00 C 240.00 363.33 239.99 366.66 240.00 370.00 C 246.66 370.00 253.33 370.02 259.99 370.00 C 260.01 363.33 260.01 356.67 260.00 350.00 C 253.33 349.98 246.67 350.01 240.01 350.00 C 240.00 346.66 240.00 343.33 240.00 340.00 C 250.00 340.00 260.00 340.00 270.00 340.01 C 269.99 343.33 269.98 346.66 269.99 349.99 C 276.66 350.02 283.32 349.98 289.99 350.01 C 290.01 363.34 289.99 376.66 290.00 389.99 C 286.67 390.00 283.34 390.00 280.00 389.99 C 280.00 386.66 280.00 383.33 280.00 380.00 C 276.67 379.99 273.34 379.99 270.01 379.99 C 270.00 376.66 270.02 373.33 270.00 370.01 C 266.66 369.99 263.33 369.98 260.00 370.00 C 259.99 373.33 259.99 376.66 260.00 379.99 C 253.33 380.01 246.67 379.98 240.00 380.00 C 240.00 383.33 240.00 386.66 240.00 390.00 C 246.60 389.83 253.25 390.33 259.80 389.80 C 260.37 386.58 259.87 383.27 259.99 380.01 C 263.33 379.99 266.66 379.99 270.00 380.00 C 270.00 383.33 270.00 386.67 269.99 390.00 C 266.85 390.29 263.45 389.28 260.49 390.50 C 259.29 393.46 260.29 396.86 260.01 400.00 C 246.67 400.00 233.34 400.00 220.00 400.00 C 220.00 396.66 220.00 393.34 220.00 390.01 C 216.66 389.98 213.33 389.99 210.00 390.01 C 209.99 393.33 210.00 396.66 210.00 399.99 C 206.66 400.00 203.33 400.00 200.00 400.00 C 200.00 396.66 200.00 393.33 200.00 390.01 C 196.67 389.99 193.34 389.99 190.00 390.00 C 190.00 393.33 190.00 396.66 190.00 400.00 C 186.67 400.00 183.33 400.00 180.00 400.00 C 180.00 396.66 180.00 393.33 179.99 390.01 C 176.66 389.99 173.33 389.99 170.00 389.99 C 170.01 386.66 170.00 383.33 170.00 380.01 C 166.66 380.00 163.33 379.99 160.00 380.00 C 160.00 376.66 160.01 373.33 160.00 370.00 C 153.33 369.99 146.67 369.99 140.00 370.00 C 139.99 376.67 139.99 383.33 140.00 390.00 C 150.00 390.02 159.99 389.99 169.99 390.01 C 170.00 393.33 170.00 396.67 169.99 400.00 C 153.33 400.00 136.67 400.00 120.00 400.00 C 120.00 393.33 120.00 386.67 120.00 380.00 C 123.33 380.00 126.66 380.00 130.00 379.99 C 130.00 376.66 130.01 373.34 130.01 370.01 C 133.34 370.00 136.66 370.00 139.99 369.99 C 140.01 366.66 140.01 363.33 140.00 360.00 C 136.66 360.00 133.33 360.00 130.00 360.00 C 130.00 356.67 130.00 353.34 130.01 350.01 C 133.34 350.01 136.67 350.01 139.99 349.99 C 140.00 346.66 140.01 343.34 140.01 340.01 Z" />
<path fill="#000000" d=" M 290.00 340.01 C 293.33 339.99 296.66 339.99 299.99 340.01 C 300.00 343.34 300.00 346.67 299.99 350.00 C 296.66 350.00 293.33 350.00 290.00 349.99 C 289.99 346.66 290.00 343.33 290.00 340.01 Z" />
<path fill="#000000" d=" M 50.01 350.01 C 60.00 349.99 70.00 350.00 80.00 350.01 C 80.00 360.00 80.00 370.00 80.00 379.99 C 70.00 380.00 60.00 380.00 50.01 379.99 C 50.00 370.00 49.99 360.00 50.01 350.01 Z" />
<path fill="#fefefe" d=" M 150.01 350.00 C 153.34 349.99 156.67 349.99 160.00 350.00 C 160.00 353.33 160.00 356.66 160.00 360.00 C 156.67 360.00 153.33 360.00 150.00 360.00 C 150.00 356.66 150.00 353.33 150.01 350.00 Z" />
<path fill="#000000" d=" M 110.00 360.00 C 113.34 360.00 116.67 360.00 120.00 360.00 C 120.00 363.33 120.00 366.66 120.00 370.00 C 116.67 370.00 113.34 369.99 110.01 369.99 C 110.00 366.66 109.99 363.33 110.00 360.00 Z" />
<path fill="#fefefe" d=" M 270.00 360.00 C 273.33 360.00 276.67 360.00 280.00 360.00 C 280.00 363.33 280.00 366.66 280.00 370.00 C 276.67 370.00 273.33 370.00 270.01 370.00 C 270.00 366.67 270.00 363.33 270.00 360.00 Z" />
<path fill="#fefefe" d=" M 200.00 370.00 C 206.67 369.99 213.33 369.99 220.00 370.00 C 220.01 373.33 220.00 376.66 220.01 380.00 C 223.33 379.99 226.66 379.98 230.00 380.00 C 230.01 383.33 230.01 386.66 229.99 389.99 C 226.66 390.00 223.33 390.01 220.00 390.00 C 219.98 386.67 220.00 383.34 220.00 380.01 C 213.33 379.99 206.67 380.01 200.00 380.00 C 199.99 376.67 199.99 373.33 200.00 370.00 Z" />
<path fill="#000000" d=" M 300.00 370.01 C 303.33 369.99 306.66 369.99 309.99 370.01 C 309.99 373.34 309.99 376.66 310.00 379.99 C 313.33 380.00 316.66 380.00 320.00 380.01 C 320.00 383.33 319.99 386.66 320.00 390.00 C 326.66 390.02 333.33 389.99 340.00 390.00 C 340.00 393.33 340.00 396.66 339.99 400.00 C 330.00 400.00 320.00 400.00 310.00 400.00 C 310.00 396.66 310.00 393.33 309.99 390.01 C 306.66 390.00 303.33 389.99 300.01 389.99 C 299.99 383.33 300.00 376.67 300.00 370.01 Z" />
<path fill="#000000" d=" M 349.99 370.01 C 353.33 370.00 356.66 369.99 360.00 370.01 C 359.99 373.33 359.99 376.66 360.00 380.00 C 363.33 380.00 366.66 380.00 369.99 380.01 C 370.01 383.33 370.01 386.66 370.00 389.99 C 363.33 390.00 356.67 390.01 350.00 389.99 C 349.99 383.33 350.00 376.67 349.99 370.01 Z" />
<path fill="#000000" d=" M 380.01 390.00 C 386.67 390.00 393.33 390.00 399.99 390.00 C 400.00 393.33 400.00 396.66 400.00 400.00 C 393.33 400.00 386.67 400.00 380.01 400.00 C 380.00 396.66 380.00 393.33 380.01 390.00 Z" />
</svg>
